<svg id="Capa_1" enable-background="new 0 0 512 512" height="512" viewBox="0 0 512 512" width="512" xmlns="http://www.w3.org/2000/svg"><g><g><g><path d="m16.812 148.643h126.154c5.143 0 9.312 4.169 9.312 9.312v137.453h-135.466c-5.143 0-9.312-4.169-9.312-9.312v-128.14c0-5.143 4.169-9.313 9.312-9.313z" fill="#a2c3fe"/></g></g><g><g><path d="m142.966 148.643h-30c5.143 0 9.312 4.17 9.312 9.312v137.453h30v-137.452c0-5.143-4.169-9.313-9.312-9.313z" fill="#77a2f3"/></g></g><g><g><path d="m247.677 429.983h101.865l80.013-84.045c12.208-12.823 14.745-32.059 6.279-47.609l-28.381-56.843h-42.882s-2.043 72.372-7.15 77.04l-62.004 31.66c-12.812-11.727-20.108-28.297-20.108-45.666v-9.112l-61.515-21.236-61.515 21.236c-18.38 27.939-24.439 62.215-16.751 94.762l3.772 15.971z" fill="#fb5c6f"/></g></g><g><g><path d="m421.155 239.973h-46.242c-18.322 0-33.175-14.853-33.175-33.175 0-18.322 14.853-33.175 33.175-33.175h46.242c5.573 0 10.092 4.518 10.092 10.092v46.166c-.001 5.574-4.519 10.092-10.092 10.092z" fill="#fe787e"/></g></g><g><g><path d="m421.155 173.623h-30c5.573 0 10.092 4.518 10.092 10.092v46.167c0 5.573-4.518 10.091-10.092 10.091h30c5.573 0 10.092-4.518 10.092-10.091v-46.167c-.001-5.574-4.519-10.092-10.092-10.092z" fill="#fb5c6f"/></g></g><g><g><ellipse cx="180.161" cy="437.511" fill="#5d656e" rx="56.899" ry="56.559"/></g></g><g><g><path d="m180.161 380.952c-4.426 0-8.729.519-12.865 1.47 25.225 5.798 44.034 28.253 44.034 55.089 0 26.837-18.809 49.291-44.034 55.089 4.136.951 8.438 1.47 12.865 1.47 31.424 0 56.899-25.322 56.899-56.559s-25.475-56.559-56.899-56.559z" fill="#474d54"/></g></g><g><g><ellipse cx="180.161" cy="437.511" fill="#fff" rx="19.178" ry="19.064"/></g></g><g><g><path d="m263.853 430.04h-165.851v-3.508c0-45.798 37.127-82.925 82.925-82.925 45.798 0 82.925 37.127 82.925 82.925v3.508z" fill="#fe787e"/></g></g><g><g><path d="m180.927 343.607c-4.705 0-9.317.398-13.808 1.151 39.225 6.575 69.118 40.681 69.118 81.775v3.508h27.616v-3.508c0-45.799-37.127-82.926-82.926-82.926z" fill="#fb5c6f"/></g></g><g><g><ellipse cx="422.509" cy="437.511" fill="#5d656e" rx="56.899" ry="56.559"/></g></g><g><g><path d="m422.509 380.952c-4.426 0-8.729.519-12.865 1.47 25.225 5.798 44.034 28.253 44.034 55.089 0 26.837-18.809 49.291-44.034 55.089 4.136.951 8.438 1.47 12.865 1.47 31.424 0 56.899-25.322 56.899-56.559-.001-31.237-25.475-56.559-56.899-56.559z" fill="#474d54"/></g></g><g><g><ellipse cx="422.509" cy="437.511" fill="#fff" rx="19.178" ry="19.064"/></g></g><g><g><path d="m504.5 430.04h-165.851v-3.508c0-45.798 37.127-82.925 82.925-82.925 45.798 0 82.925 37.127 82.925 82.925v3.508z" fill="#fe787e"/></g></g><g><g><path d="m421.574 343.607c-5.125 0-10.132.489-15 1.379 38.634 7.063 67.926 40.873 67.926 81.547v3.508h30v-3.508c0-45.799-37.127-82.926-82.926-82.926z" fill="#fb5c6f"/></g></g><g><g><path d="m155.122 234.126h107.031c28.813 1.9 27.468 30.984 27.468 46.155v10.083c0 2.786-2.258 5.044-5.044 5.044h-132.3" fill="#edae86"/></g></g><g><g><path d="m342.22 220.62h-23.896c-3.651 0-6.612-2.96-6.612-6.611v-25.397c0-3.651 2.96-6.612 6.612-6.612h23.896c10.665 0 19.31 8.645 19.31 19.31 0 10.664-8.645 19.31-19.31 19.31z" fill="#ffe07d"/></g></g><g><g><path d="m218.706 86.18c0-38.239-31.449-69.133-69.893-68.229-35.468.835-65.519 30.69-66.572 66.152-.843 28.42 15.695 53.074 39.774 64.129 1.347.618 2.498 1.595 3.342 2.813l21.095 30.441c1.939 2.798 6.076 2.798 8.015 0l21.095-30.442c.847-1.222 2.003-2.198 3.354-2.818 23.482-10.787 39.79-34.511 39.79-62.046z" fill="#ffebab"/></g></g><g><g><path d="m148.813 17.952c-4.87.115-9.633.795-14.238 1.943 29.836 7.298 51.98 34.201 51.98 66.286 0 27.535-16.308 51.259-39.791 62.047-1.351.621-2.507 1.597-3.354 2.819l-9.027 13.026 12.069 17.415c1.939 2.798 6.076 2.798 8.014 0l21.095-30.441c.847-1.222 2.003-2.198 3.354-2.819 23.483-10.788 39.791-34.512 39.791-62.047 0-38.24-31.449-69.134-69.893-68.229z" fill="#ffe07d"/></g></g><g><g><ellipse cx="150.458" cy="86.636" fill="#fdfcfc" rx="28.711" ry="28.711" transform="matrix(.907 -.422 .422 .907 -22.509 71.61)"/></g></g><g><path d="m443.478 338.795c6.676-13.848 6.411-30.24-.991-43.931l-23.662-47.392h2.329c9.7 0 17.592-7.892 17.592-17.592v-46.166c0-9.7-7.892-17.592-17.592-17.592h-46.241c-8.584 0-16.793 2.644-23.741 7.645-.684.492-1.254 1.082-1.718 1.731-2.303-.646-4.728-1-7.234-1h-23.896c-7.781 0-14.112 6.331-14.112 14.112v25.396c0 7.781 6.331 14.111 14.112 14.111h21.965c.061.109.117.221.184.328 4.128 6.556 9.889 11.647 16.575 14.91-.033.247-.054.497-.063.752-1.288 39.197-3.537 62.355-5.262 68.904l-54.852 28.007c-8.991-9.949-14.064-22.989-14.064-36.501v-1.612h1.77c6.917 0 12.544-5.627 12.544-12.544l.004-12.005c.03-8.354.07-19.795-3.859-29.986-5.101-13.231-15.689-20.746-30.62-21.73-.165-.011-.329-.017-.494-.017h-102.374v-39.783c.301-.345 21.949-31.526 21.949-31.526.084-.121.193-.215.319-.273 26.826-12.324 44.16-39.354 44.16-68.862 0-20.57-8.105-39.816-22.823-54.192-14.713-14.372-34.172-22.034-54.747-21.535-39.57.932-72.718 33.871-73.892 73.428-.653 22.008 8.186 42.676 23.567 57.263h-81.499c-9.27.001-16.812 7.543-16.812 16.812v128.141c0 9.27 7.542 16.812 16.812 16.812h11.702c4.142 0 7.5-3.358 7.5-7.5 0-4.143-3.358-7.5-7.5-7.5h-11.702c-.999 0-1.812-.814-1.812-1.812v-27.246l27.423-19.375c27.121-19.161 43.502-50.201 44.099-83.331h33.242l20.522 29.616c1.169 1.686 2.72 3.025 4.491 3.941v98.208h-86.263c-4.142 0-7.5 3.357-7.5 7.5 0 4.142 3.358 7.5 7.5 7.5h80.705c-8.256 15.98-13.149 33.665-14.221 51.638-.02.328-.01.651.012.97-21.003 16.573-34.509 42.247-34.509 71.016v3.508c0 4.143 3.358 7.5 7.5 7.5h17.761c.016 35.309 28.898 64.029 64.398 64.029 35.499 0 64.382-28.721 64.398-64.029h113.552c.016 35.309 28.898 64.029 64.398 64.029 35.499 0 64.382-28.721 64.398-64.029h17.594c4.142 0 7.5-3.357 7.5-7.5v-3.508c0-42.31-29.21-77.92-68.522-87.738zm-22.324-157.672c1.429 0 2.592 1.163 2.592 2.592v46.166c0 1.429-1.163 2.592-2.592 2.592h-46.241c-7.262 0-14.021-3.009-18.834-8.222 7.757-4.703 12.951-13.227 12.951-22.941 0-6.516-2.339-12.495-6.218-17.146 3.703-1.987 7.824-3.04 12.101-3.04h46.241zm-101.942 8.376h23.007c6.512 0 11.81 5.298 11.81 11.811 0 6.512-5.298 11.81-11.81 11.81h-23.007zm-37.085 88.807-.005 9.602h-38.037v-46.282h17.81c17.105 1.239 20.312 13.864 20.232 36.68zm-79.451 9.601v-46.282h26.409v46.282zm-15-46.282v46.282h-27.898v-46.282zm-153.908-14.401-18.768 13.259v-82.528c0-.999.813-1.812 1.812-1.812h54.71c-.594 28.266-14.607 54.728-37.754 71.081zm97.752-80.451c-1.615-2.33-3.82-4.182-6.376-5.355-22.235-10.208-36.133-32.617-35.407-57.091.452-15.223 6.905-29.771 18.17-40.964s25.855-17.555 41.082-17.913c.494-.012.985-.018 1.477-.018 15.968 0 30.989 6.106 42.435 17.287 11.804 11.529 18.305 26.965 18.305 43.462 0 23.667-13.904 45.347-35.42 55.231-2.566 1.178-4.776 3.032-6.39 5.362l-18.938 27.329zm48.641 339.797c-27.229 0-49.382-21.992-49.398-49.029h22.721c.016 14.634 11.977 26.534 26.678 26.534s26.661-11.9 26.677-26.534h22.72c-.016 27.036-22.169 49.029-49.398 49.029zm11.677-49.03c-.016 6.362-5.247 11.534-11.677 11.534-6.429 0-11.66-5.172-11.677-11.534zm-86.232-15c2.084-39.739 35.072-71.434 75.321-71.434 40.25 0 73.237 31.694 75.321 71.434zm316.903 64.03c-27.229 0-49.382-21.992-49.398-49.029h22.721c.016 14.634 11.977 26.534 26.677 26.534 14.701 0 26.661-11.9 26.678-26.534h22.72c-.017 27.036-22.17 49.029-49.398 49.029zm11.677-49.03c-.016 6.362-5.247 11.534-11.677 11.534s-11.66-5.172-11.677-11.534zm-87.934-15c.759-14.675 5.704-28.605 14.414-40.505 2.446-3.343 1.72-8.035-1.622-10.481s-8.034-1.721-10.482 1.622c-10.593 14.473-16.535 31.444-17.317 49.307h-59.987c-2.126-47.989-41.827-86.376-90.331-86.376-14.314 0-27.859 3.349-39.901 9.295 2.226-14.853 7.382-29.244 15.147-42.111.076-.126.138-.255.205-.383h111.43v1.612c0 19.423 8.217 38.084 22.544 51.197 1.415 1.295 3.23 1.968 5.066 1.968 1.16 0 2.329-.27 3.409-.82l62.004-31.659c.598-.306 1.153-.69 1.649-1.143 2.98-2.724 5.261-7.085 7.473-38.58 1.023-14.571 1.646-30.048 1.931-38.13 1.003.074 2.012.122 3.029.122h27.242c.112.338.241.675.405 1.003l26.563 53.204c.04.079.081.158.123.235 5.711 10.491 5.35 23.308-.945 33.449-.194.311-.352.634-.495.961-2.06-.141-4.137-.219-6.233-.219-18.134 0-35.63 5.35-50.596 15.471-3.432 2.32-4.332 6.983-2.012 10.414s6.985 4.331 10.414 2.012c12.476-8.436 27.066-12.897 42.194-12.897 40.25 0 73.237 31.694 75.321 71.434h-150.642z"/><path d="m186.669 86.636c0-19.967-16.244-36.211-36.211-36.211s-36.211 16.244-36.211 36.211 16.244 36.211 36.211 36.211c19.966 0 36.211-16.244 36.211-36.211zm-36.211 21.211c-11.696 0-21.211-9.516-21.211-21.211s9.515-21.211 21.211-21.211c11.695 0 21.211 9.516 21.211 21.211s-9.516 21.211-21.211 21.211z"/></g></g></svg>